<?xml version="1.0" encoding="UTF-8"?>
<svg width="11px" height="15px" viewBox="0 0 11 15" version="1.1" xmlns="http://www.w3.org/2000/svg" xmlns:xlink="http://www.w3.org/1999/xlink">
    <!-- Generator: Sketch 60.1 (88133) - https://sketch.com -->
    <title>Transactions</title>
    <desc>Created with Sketch.</desc>
    <defs>
        <path d="M11,3.9166 C11,4.37256 10.67269,4.71161 10.21679,4.71161 L4.16153,4.71161 L2.361318,4.62977 L3.670563,5.728761 L4.582359,6.50039 C4.734325,6.628995 4.816153,6.839439 4.816153,7.073266 C4.816153,7.505846 4.477152,7.844895 4.044633,7.844895 C3.822529,7.844895 3.635494,7.763055 3.495218,7.622759 L0.303932,4.60639 C0.09351753,4.40764 0,4.15043 0,3.9166 C0,3.68277 0.08182784,3.46064 0.303932,3.25019 L3.495218,0.21044 C3.635494,0.07015 3.822529,0 4.044633,0 C4.477152,0 4.816153,0.32736 4.816153,0.75994 C4.816153,0.99376 4.734325,1.19252 4.582359,1.32112 L3.670563,2.11613 L2.373007,3.20343 L4.16153,3.12159 L10.21679,3.12159 C10.67269,3.12159 11,3.44895 11,3.9166 Z M11,11.071707 C11,11.317225 10.90648,11.562744 10.69607,11.761496 L7.504782,14.7895557 C7.364506,14.9298519 7.177471,15 6.955367,15 C6.522848,15 6.183847,14.6609509 6.183847,14.228371 C6.183847,14.0062354 6.265675,13.7841 6.417641,13.667186 L7.329437,12.895557 L8.650372,11.796571 L6.83847,11.866719 L0.7832094,11.866719 C0.3273114,11.866719 0,11.539361 0,11.071707 C0,10.615744 0.3273114,10.288387 0.7832094,10.288387 L6.83847,10.288387 L8.626993,10.358535 L7.329437,9.282931 L6.417641,8.487919 C6.265675,8.359314 6.183847,8.160561 6.183847,7.926734 C6.183847,7.494154 6.522848,7.166797 6.955367,7.166797 C7.177471,7.166797 7.364506,7.225253 7.504782,7.365549 L10.69607,10.416991 C10.91817,10.627436 11,10.849571 11,11.071707 Z" id="path-1"></path>
    </defs>
    <g id="Page-1" stroke="none" stroke-width="1" fill="none" fill-rule="evenodd">
        <g id="Menu" transform="translate(-39.000000, -274.000000)">
            <g id="Transactions" transform="translate(39.000000, 272.000000)">
                <g transform="translate(0.000000, 2.000000)">
                    <mask id="mask-2" fill="white">
                        <use xlink:href="#path-1"></use>
                    </mask>
                    <g id="Clip-2"></g>
                    <polygon id="Fill-1" fill="#2B47FC" mask="url(#mask-2)" points="-6 -5 15 -5 15 20 -6 20"></polygon>
                </g>
            </g>
        </g>
    </g>
</svg>